<svg width="116" height="51" viewBox="0 0 116 51" fill="none" xmlns="http://www.w3.org/2000/svg">
<path fill-rule="evenodd" clip-rule="evenodd" d="M103.545 12.9207L103.403 12.853C103.388 12.8446 101.719 12.0932 100.415 13.4661L100.248 13.6418L102.92 14.9515L103.545 12.9207ZM115.776 27.5937C115.776 27.5937 114.612 29.6786 114.09 30.4491C113.566 31.2256 111.927 31.7079 110.51 31.0309C109.862 30.7229 103.799 27.1868 101.479 27.3891C89.7358 28.4129 86.5367 23.5746 86.1594 23.135C85.7806 22.6954 85.0748 22.9 85.5791 23.7648C88.1553 28.1824 95.7789 30.2308 95.7789 30.2308C97.7725 35.0348 98.0113 38.4005 98.0113 38.4005C96.0368 36.8618 93.9055 35.5649 91.6442 34.4879C85.6004 30.4323 76.1391 25.41 63.1159 22.2618C63.8643 11.9312 69.0768 -3.00274 93.453 0.528787C93.453 0.528787 98.3437 1.33047 101.604 3.58493C101.604 3.58493 100.821 4.4064 99.7911 5.43475C98.7613 6.46073 99.9007 7.11951 99.9007 7.11951L105.049 11.1667C105.109 13.3079 105.198 13.908 106.809 15.846C108.42 17.7803 114.683 24.3406 115.502 25.2183C116.452 26.233 115.776 27.5937 115.776 27.5937ZM59.6368 7.45722C58.3476 12.7678 58.4465 17.4471 59.109 21.381C57.8851 21.1376 56.643 20.9041 55.3629 20.6956C28.6852 16.3541 20.6386 29.5029 23.7526 40.1644C14.9333 43.4791 6.64485 47.2738 -0.00976562 51C10.4608 25.8877 33.2154 3.78498 52.4201 0.880191C58.6906 0.0534034 60.4545 4.12117 59.6368 7.45722Z" fill="#1F2555"/>
<path fill-rule="evenodd" clip-rule="evenodd" d="M63.3328 30.409C73.7266 29.5876 83.5362 30.6304 91.6436 34.4882C85.6005 30.4326 76.1393 25.4103 63.1153 22.2621C62.8551 25.8613 63.1335 28.9007 63.3328 30.409ZM61.8329 30.5398C50.1871 31.6511 36.417 35.4085 23.7527 40.1647C20.6388 29.5031 28.6861 16.3543 55.3631 20.696C56.6432 20.9044 57.8853 21.1379 59.1083 21.3813C59.7412 25.1425 60.8867 28.2321 61.8329 30.5398Z" fill="#00A6A7"/>
</svg>
