<svg width="134" height="53" viewBox="0 0 134 53" fill="none" xmlns="http://www.w3.org/2000/svg">
<path d="M77.0631 17.1627C76.4057 17.8694 76.0518 18.778 76.0518 19.737V39.877H83.131V10.8027L77.0631 17.1627Z" fill="#FAFAFA"/>
<path d="M76.0518 1.36328V12.1147L83.131 4.64423V1.36328H76.0518Z" fill="#FAFAFA"/>
<path d="M73.0177 14.7392C72.866 8.63154 70.3377 6.1582 64.3709 6.1582C61.5898 6.1582 51.0215 6.20868 51.0215 6.20868V51.8392H57.949V39.7249C59.0615 39.7249 62.0954 39.7754 64.3204 39.7754C70.2871 39.7754 72.7649 37.302 72.9166 31.1944C73.0177 31.0934 73.0177 14.8906 73.0177 14.7392ZM61.9437 34.122C59.2637 34.122 57.9996 34.122 57.9996 31.8001V14.1839C57.9996 11.862 59.2637 11.862 61.9437 11.862C64.5226 11.862 65.8879 11.862 65.8879 14.1839V31.8001C65.9385 34.122 64.5226 34.0715 61.9437 34.122Z" fill="#FAFAFA"/>
<path d="M48.0382 14.7392C47.8865 8.63154 45.3582 6.1582 39.3914 6.1582C36.6103 6.1582 26.042 6.20868 26.042 6.20868V51.8392H32.9695V39.7249C34.082 39.7249 37.116 39.7754 39.3409 39.7754C45.3077 39.7754 47.7854 37.302 47.9371 31.1944C48.0382 31.0934 48.0382 14.8906 48.0382 14.7392ZM37.0148 34.122C34.3348 34.122 33.0707 34.122 33.0707 31.8001V14.1839C33.0707 11.862 34.3348 11.862 37.0148 11.862C39.5937 11.862 40.959 11.862 40.959 14.1839V31.8001C40.959 34.122 39.5431 34.0715 37.0148 34.122Z" fill="#FAFAFA"/>
<path d="M125.707 39.8766V14.2347C125.707 11.9128 124.292 11.9128 121.763 11.9128C119.083 11.9128 117.819 11.9128 117.819 14.2347V39.8766H110.892V6.25946H117.313C117.313 6.25946 121.359 6.20898 124.14 6.20898C130.107 6.20898 132.584 8.68232 132.736 14.7899C132.736 14.9414 132.736 39.8766 132.736 39.8766H125.707Z" fill="#FAFAFA"/>
<path d="M107.756 14.7899C107.605 8.68232 105.076 6.20898 99.1602 6.20898C98.8568 6.20898 92.536 6.20898 90.3111 6.20898V11.9128C96.8342 11.9128 96.4296 11.9128 96.733 11.9128C99.3119 11.9128 100.677 11.9128 100.677 14.2347V17.5661C99.4636 17.5661 96.5813 17.5157 94.4576 17.5157C88.4908 17.5157 86.013 19.989 85.8613 26.0966C85.8613 26.248 85.8613 31.1947 85.8613 31.3461C86.013 37.4537 88.5413 39.9271 94.4576 39.9271C97.2387 39.9271 107.807 39.8766 107.807 39.8766L107.756 14.7899ZM100.829 31.8509C100.829 34.1728 99.5647 34.1728 96.8847 34.1728C94.3059 34.1728 92.9406 34.1728 92.9406 31.8509V25.4909C92.9406 23.169 94.3564 23.169 96.8847 23.169C99.5647 23.169 100.829 23.169 100.829 25.4909V31.8509Z" fill="#FAFAFA"/>
<path d="M23.0582 14.7899C22.9065 8.68232 20.3782 6.20898 14.462 6.20898C14.1586 6.20898 5.6129 6.20898 5.6129 6.20898V11.9128C5.6129 11.9128 11.7314 11.9128 12.0348 11.9128C14.6137 11.9128 15.9789 11.9128 15.9789 14.2347V17.5661C14.7654 17.5661 11.8831 17.5157 9.75931 17.5157C3.79252 17.5157 1.31478 19.989 1.16309 26.0966C1.16309 26.248 1.16309 31.1947 1.16309 31.3461C1.26422 37.1004 3.48912 39.5737 8.74799 39.8766L14.1586 34.1223C13.6023 34.1728 12.945 34.1728 12.1359 34.1728C9.55705 34.1728 8.19177 34.1728 8.19177 31.8509V25.4909C8.19177 23.169 9.60761 23.169 12.1359 23.169C14.8159 23.169 16.0801 23.169 16.0801 25.4909V39.8261C16.3329 39.8261 23.0076 39.8261 23.0076 39.8261L23.0582 14.7899Z" fill="#FAFAFA"/>
</svg>
