<svg width="24" height="24" viewBox="0 0 24 24" fill="none" xmlns="http://www.w3.org/2000/svg">
<path d="M12 2C6.477 2 2 6.477 2 12C2 17.523 6.477 22 12 22C17.523 22 22 17.523 22 12C22 6.477 17.523 2 12 2Z" stroke="url(#paint0_linear_402_110)" stroke-linecap="round" stroke-linejoin="round"/>
<path d="M8 21.168V14L12 7L16 14V21.168" stroke="url(#paint1_linear_402_110)" stroke-linecap="round" stroke-linejoin="round"/>
<path d="M8 14C8 14 9.127 15 10 15C10.873 15 12 14 12 14C12 14 13.127 15 14 15C14.873 15 16 14 16 14" stroke="url(#paint2_linear_402_110)" stroke-linecap="round" stroke-linejoin="round"/>
<defs>
<linearGradient id="paint0_linear_402_110" x1="2" y1="12" x2="22" y2="12" gradientUnits="userSpaceOnUse">
<stop stop-color="#5400FF"/>
<stop offset="1" stop-color="#9023EE"/>
</linearGradient>
<linearGradient id="paint1_linear_402_110" x1="8" y1="14.084" x2="16" y2="14.084" gradientUnits="userSpaceOnUse">
<stop stop-color="#5400FF"/>
<stop offset="1" stop-color="#9023EE"/>
</linearGradient>
<linearGradient id="paint2_linear_402_110" x1="8" y1="14.5" x2="16" y2="14.5" gradientUnits="userSpaceOnUse">
<stop stop-color="#5400FF"/>
<stop offset="1" stop-color="#9023EE"/>
</linearGradient>
</defs>
</svg>
