<svg width="16" height="16" viewBox="0 0 16 16" fill="none" xmlns="http://www.w3.org/2000/svg">
<g clip-path="url(#clip0_459_1110)">
<path d="M15.734 6.1L15.712 6.042L13.534 0.357998C13.4894 0.247119 13.411 0.153086 13.3099 0.0892007C13.2089 0.025315 13.0903 -0.0051906 12.971 0.00199844C12.852 0.0091685 12.7378 0.0516421 12.643 0.123998C12.5508 0.200521 12.4836 0.302921 12.45 0.417998L10.98 4.917H5.02503L3.55503 0.416998C3.52363 0.300755 3.45636 0.197384 3.36278 0.121609C3.26921 0.0458349 3.1541 0.00152262 3.03387 -0.00501527C2.91364 -0.0115532 2.79441 0.0200168 2.69317 0.0851974C2.59193 0.150378 2.51384 0.245845 2.47003 0.357998L0.289029 6.04L0.267029 6.097C-0.0460941 6.9162 -0.0844243 7.81499 0.157817 8.65787C0.400058 9.50076 0.909741 10.242 1.61003 10.77L1.61703 10.776L1.63703 10.79L4.95503 13.275L6.59503 14.517L7.59503 15.272C7.71189 15.3614 7.85491 15.4098 8.00203 15.4098C8.14914 15.4098 8.29217 15.3614 8.40903 15.272L9.40903 14.517L11.049 13.275L14.387 10.775L14.396 10.768C15.094 10.2393 15.6018 9.4987 15.8433 8.65713C16.0849 7.81556 16.0473 6.91837 15.736 6.1H15.734Z" fill="#D2CCB5" fill-opacity="0.59"/>
</g>
<defs>
<clipPath id="clip0_459_1110">
<rect width="16" height="16" fill="white"/>
</clipPath>
</defs>
</svg>
