<svg width="102" height="102" viewBox="0 0 102 102" fill="none" xmlns="http://www.w3.org/2000/svg">
<path d="M6.45649 0C2.92102 0 0 2.92102 0 6.45649V95.1835C0 98.719 2.92102 101.64 6.45649 101.64H95.1835C98.719 101.64 101.64 98.7284 101.64 95.1835V6.45649C101.64 2.92102 98.7284 0 95.1835 0H6.45649ZM6.45649 4.84H95.1835C96.0816 4.84 96.8 5.55844 96.8 6.45649V95.1835C96.8 96.0816 96.0816 96.8 95.1835 96.8H6.45649C5.55844 96.8 4.84 96.0816 4.84 95.1835V6.45649C4.84 5.55844 5.55844 4.84 6.45649 4.84ZM45.98 45.98V76.4096C45.98 81.0794 44.2123 82.28 41.14 82.28C37.9259 82.28 35.695 80.2759 34.2203 77.6763L26.62 82.28C28.8226 86.9404 34.2203 91.96 41.7072 91.96C49.9881 91.96 55.66 87.5548 55.66 77.8843V45.98H45.98ZM76.1166 45.98C67.8734 45.98 62.5891 51.2548 62.5891 58.184C62.5891 65.6992 67.0227 69.2536 73.6871 72.0895L75.9937 73.0821C80.2003 74.9255 82.28 76.0504 82.28 79.2172C82.28 81.8546 80.2759 83.7641 76.4474 83.7641C71.891 83.7641 69.7357 80.673 67.76 77.44L60.5 82.28C63.213 87.6399 68.0814 91.96 76.6554 91.96C85.4279 91.96 91.96 87.4036 91.96 79.0943C91.96 71.3805 87.5359 67.9491 79.6804 64.5837L77.3738 63.6006C73.413 61.8802 71.6925 60.7647 71.6925 57.9949C71.6925 55.7545 73.413 54.0341 76.1166 54.0341C78.7729 54.0341 80.4744 55.159 82.0531 57.9949L89.2469 53.3818C86.2125 48.0219 81.9869 45.98 76.1166 45.98Z" fill="#FFC859"/>
</svg>
