<svg width="80" height="80" viewBox="0 0 80 80" fill="none" xmlns="http://www.w3.org/2000/svg">
<g clip-path="url(#clip0_414_247)">
<path d="M0.0332031 19.2319C0.0332031 8.62838 8.62838 0.0332031 19.2319 0.0332031H60.7647C71.3715 0.0332031 79.9667 8.62838 79.9667 19.2319V80H19.2319C8.62838 80 0.0332031 71.4048 0.0332031 60.8013V19.2319Z" fill="#74AA9C"/>
<path d="M36.8186 9.94499C30.2351 9.94499 24.3863 14.1777 22.3481 20.4288L21.6133 24.7214V38.9491C21.6133 39.6607 21.979 40.2924 22.5908 40.6582L34.0455 47.2589V27.7072H34.0489V26.7796L45.6432 20.083C46.7642 19.4339 47.9854 18.9905 49.2499 18.7587L48.1336 14.9724C45.2542 11.7538 41.1345 9.92504 36.8186 9.94499ZM36.8186 13.8519L36.7987 13.8718C39.4487 13.8718 41.9957 14.7862 44.0339 16.4787C43.9508 16.5186 43.7878 16.6216 43.6681 16.6815L31.6814 23.5842C31.0696 23.93 30.7039 24.5817 30.7039 25.2933V41.4961L25.5468 38.5235V25.1304C25.5435 18.9093 30.5875 13.8619 36.8186 13.8519Z" fill="white"/>
<path d="M64.4365 22.2166C61.1448 16.5151 54.5547 13.5663 48.122 14.9267L44.0371 16.4366L31.7155 23.5505C31.0993 23.9063 30.735 24.5389 30.7242 25.2516L30.7352 38.472L47.6674 28.6962L47.6691 28.6991L48.4725 28.2352L60.0691 34.9279C61.1917 35.5743 62.1863 36.41 63.0192 37.3892L65.7401 34.5294C67.0878 30.4264 66.6117 25.9443 64.4365 22.2166ZM61.053 24.1701L61.0258 24.1628C62.3508 26.4577 62.8324 29.1207 62.3858 31.7321C62.3097 31.68 62.139 31.5905 62.0273 31.5167L50.056 24.5873C49.4506 24.2304 48.7034 24.2395 48.0871 24.5953L34.0551 32.6967L34.0508 26.7442L45.6497 20.0476C51.0356 16.9342 57.9289 18.7788 61.053 24.1701Z" fill="white"/>
<path d="M67.6199 52.2716C70.9116 46.5701 70.1703 39.3886 65.7759 34.4979L62.4258 31.7152L50.1042 24.6014C49.488 24.2456 48.758 24.2465 48.1353 24.5934L36.6916 31.2131L53.6238 40.989L53.6222 40.9918L54.4256 41.4557L54.4278 54.845C54.4294 56.1403 54.2029 57.4196 53.7713 58.6306L57.6085 59.557C61.8356 58.6726 65.4792 56.0193 67.6199 52.2716ZM64.2364 50.3182L64.2291 50.2909C62.9041 52.5859 60.8387 54.3345 58.3539 55.2534C58.3609 55.1615 58.3531 54.9689 58.3611 54.8353L58.3765 41.0031C58.3829 40.3004 58.0014 39.6578 57.3852 39.302L43.3531 31.2006L48.506 28.2207L60.1049 34.9173C65.4941 38.0249 67.3433 44.9169 64.2364 50.3182Z" fill="white"/>
<path d="M43.1814 70.055C49.7649 70.055 55.6137 65.8223 57.6519 59.5712L58.3867 55.2786V41.0509C58.3867 40.3393 58.021 39.7076 57.4092 39.3418L45.9545 32.7411L45.9545 52.2928H45.9511V53.2204L34.3568 59.917C33.2358 60.5661 32.0146 61.0095 30.7501 61.2413L31.8664 65.0276C34.7458 68.2462 38.8655 70.075 43.1814 70.055ZM43.1814 66.1481L43.2013 66.1282C40.5513 66.1282 38.0043 65.2138 35.9661 63.5213C36.0492 63.4814 36.2122 63.3784 36.3319 63.3185L48.3186 56.4158C48.9304 56.07 49.2961 55.4183 49.2961 54.7067V38.5039L54.4532 41.4765V54.8696C54.4565 61.0907 49.4125 66.1381 43.1814 66.1481Z" fill="white"/>
<path d="M15.5635 57.7834C18.8552 63.4849 25.4453 66.4337 31.878 65.0733L35.9629 63.5634L48.2845 56.4495C48.9007 56.0937 49.265 55.4611 49.2758 54.7484L49.2648 41.528L32.3326 51.3038L32.3309 51.3009L31.5275 51.7648L19.9309 45.0721C18.8083 44.4257 17.8137 43.59 16.9808 42.6108L14.2599 45.4706C12.9122 49.5736 13.3883 54.0557 15.5635 57.7834ZM18.947 55.8299L18.9742 55.8372C17.6492 53.5423 17.1676 50.8793 17.6142 48.2679C17.6903 48.32 17.861 48.4095 17.9727 48.4833L29.944 55.4127C30.5494 55.7696 31.2966 55.7605 31.9129 55.4047L45.9449 47.3033L45.9492 53.2558L34.3503 59.9524C28.9644 63.0658 22.0711 61.2212 18.947 55.8299Z" fill="white"/>
<path d="M12.3801 27.7284C9.08839 33.4299 9.82969 40.6114 14.2241 45.5021L17.5742 48.2848L29.8958 55.3986C30.512 55.7544 31.242 55.7535 31.8647 55.4066L43.3084 48.7869L26.3762 39.011L26.3778 39.0082L25.5744 38.5443L25.5722 25.155C25.5706 23.8597 25.7971 22.5804 26.2287 21.3694L22.3915 20.443C18.1644 21.3274 14.5208 23.9807 12.3801 27.7284ZM15.7636 29.6818L15.7709 29.7091C17.0959 27.4141 19.1613 25.6655 21.6461 24.7466C21.6391 24.8385 21.6469 25.0311 21.6389 25.1647L21.6235 38.9969C21.6171 39.6996 21.9986 40.3422 22.6148 40.698L36.6469 48.7994L31.494 51.7793L19.8951 45.0827C14.5059 41.9751 12.6567 35.0831 15.7636 29.6818Z" fill="white"/>
</g>
<defs>
<clipPath id="clip0_414_247">
<rect width="80" height="80" fill="white"/>
</clipPath>
</defs>
</svg>
