<svg width="88" height="66" viewBox="0 0 88 66" fill="none" xmlns="http://www.w3.org/2000/svg">
<g clip-path="url(#clip0_414_227)">
<path d="M75.7272 37.9351C72.6589 37.9511 69.9923 38.6905 67.7593 39.7836C66.9401 38.1601 66.1208 36.7134 65.9762 35.6526C65.8156 34.4149 65.6228 33.6594 65.8156 32.1806C66.0083 30.7017 66.8758 28.596 66.8597 28.4353C66.8437 28.2746 66.667 27.5191 64.8999 27.503C63.1328 27.4869 61.6067 27.8406 61.43 28.3067C61.2533 28.7729 60.916 29.8337 60.6911 30.9268C60.3858 32.5342 57.1569 38.2726 55.3095 41.2785C54.7152 40.1051 54.2011 39.0763 54.0887 38.2565C53.928 37.0188 53.7352 36.2634 53.928 34.7846C54.1208 33.3057 54.9883 31.2 54.9722 31.0393C54.9561 30.8786 54.7794 30.1231 53.0124 30.107C51.2453 30.0909 49.7192 30.4446 49.5425 30.9107C49.3658 31.3769 49.173 32.4699 48.8035 33.5308C48.434 34.5917 44.1449 44.1718 43.0204 46.6472C42.4421 47.917 41.9441 48.9297 41.5907 49.6209C41.5907 49.6209 41.5746 49.6691 41.5264 49.7495C41.2212 50.3442 41.0445 50.6657 41.0445 50.6657C41.0445 50.6657 41.0445 50.6657 41.0445 50.6818C40.8035 51.1158 40.5465 51.5176 40.418 51.5176C40.3216 51.5176 40.1449 50.3603 40.4501 48.785C41.0927 45.4577 42.6188 40.2819 42.6027 40.1051C42.6027 40.0086 42.8919 39.1085 41.6067 38.6423C40.3537 38.1762 39.9039 38.9477 39.7915 38.9477C39.679 38.9477 39.5987 39.221 39.5987 39.221C39.5987 39.221 40.9963 33.4022 36.932 33.4022C34.3939 33.4022 30.8919 36.183 29.1569 38.6905C28.0646 39.2853 25.7352 40.5551 23.2453 41.9214C22.2975 42.4519 21.3176 42.9823 20.4019 43.4806C20.3377 43.4163 20.2734 43.3359 20.2091 43.2716C15.2935 38.0154 6.20111 34.3023 6.58665 27.2458C6.73123 24.674 7.61476 17.9229 24.0485 9.72513C37.5746 3.0544 48.3377 4.90292 50.2011 9.0018C52.8678 14.8527 44.434 25.7188 30.4581 27.2941C25.1248 27.8888 22.3296 25.8313 21.6228 25.0598C20.8838 24.2561 20.7714 24.2078 20.4983 24.3686C20.0485 24.6097 20.3377 25.333 20.4983 25.7509C20.916 26.844 22.6348 28.7729 25.5425 29.7212C28.1128 30.5571 34.3618 31.0232 41.928 28.0978C50.3939 24.8187 57.0124 15.7047 55.0686 8.0695C53.1248 0.321814 40.2734 -2.23396 28.1128 2.08996C20.8838 4.6618 13.0445 8.71246 7.40593 13.9847C0.707133 20.2536 -0.353108 25.7027 0.080627 27.9852C1.63886 36.0866 12.8035 41.3588 17.2694 45.2648C17.0445 45.3934 16.8356 45.5059 16.6589 45.6024C14.426 46.7115 5.91195 51.164 3.79147 55.8737C1.38183 61.2103 4.17701 65.0359 6.0244 65.5503C11.7593 67.1416 17.6549 64.2804 20.8196 59.5546C23.9842 54.8289 23.5987 48.6886 22.1369 45.8756C22.1208 45.8435 22.1047 45.8113 22.0726 45.7792C22.6509 45.4416 23.2453 45.088 23.8236 44.7505C24.9642 44.0753 26.0887 43.4485 27.0525 42.9341C26.5063 44.429 26.1047 46.2132 25.912 48.785C25.671 51.807 26.9079 55.729 28.5304 57.2721C29.2533 57.9472 30.1047 57.9633 30.6509 57.9633C32.5465 57.9633 33.3979 56.3881 34.3457 54.5235C35.5023 52.241 36.5465 49.5887 36.5465 49.5887C36.5465 49.5887 35.2453 56.7578 38.7794 56.7578C40.0646 56.7578 41.3658 55.0861 41.9441 54.2341C41.9441 54.2502 41.9441 54.2502 41.9441 54.2502C41.9441 54.2502 41.9762 54.202 42.0405 54.0895C42.169 53.8805 42.2493 53.7519 42.2493 53.7519C42.2493 53.7519 42.2493 53.7358 42.2493 53.7198C42.7634 52.8196 43.92 50.7782 45.6389 47.3866C47.8557 43.0145 49.9923 37.5493 49.9923 37.5493C49.9923 37.5493 50.185 38.8834 50.8437 41.1017C51.2292 42.4036 52.0324 43.8342 52.675 45.2166C52.1609 45.9399 51.8397 46.3418 51.8397 46.3418C51.8397 46.3418 51.8397 46.3418 51.8557 46.3579C51.4381 46.9044 50.9883 47.4991 50.4903 48.0778C48.7393 50.1674 46.6509 52.5624 46.3618 53.2536C46.0244 54.0734 46.1047 54.6681 46.7473 55.1504C47.2132 55.504 48.0485 55.5522 48.8999 55.504C50.4742 55.3915 51.5826 55.0057 52.1288 54.7646C52.9802 54.4592 53.9762 53.993 54.9079 53.3018C56.6268 52.032 57.671 50.2156 57.5746 47.8206C57.5264 46.5025 57.0927 45.1845 56.5626 43.9468C56.7232 43.7217 56.8678 43.4967 57.0284 43.2716C59.7433 39.3014 61.8477 34.9453 61.8477 34.9453C61.8477 34.9453 62.0405 36.2794 62.6991 38.4977C63.0204 39.6228 63.679 40.8445 64.2573 42.0339C61.7031 44.1075 60.1288 46.5186 59.5666 48.0939C58.5545 51.0193 59.3417 52.3374 60.8357 52.6428C61.5104 52.7875 62.4742 52.466 63.181 52.1606C64.0806 51.8713 65.1409 51.373 66.1529 50.6336C67.8718 49.3637 69.5264 47.5956 69.43 45.2005C69.3818 44.1075 69.0927 43.0305 68.6911 41.9857C70.8597 41.0856 73.6549 40.5873 77.2212 41.0052C84.8678 41.9054 86.3778 46.6793 86.0887 48.6886C85.7995 50.6979 84.1931 51.7909 83.663 52.1284C83.1328 52.466 82.9561 52.5785 83.0043 52.8196C83.0686 53.1733 83.3256 53.1572 83.7754 53.0929C84.4019 52.9804 87.7915 51.4694 87.9361 47.7724C88.177 43.0466 83.679 37.8868 75.7272 37.9351ZM16.7393 57.8347C14.2011 60.5995 10.667 61.6443 9.14087 60.7602C7.50231 59.8118 8.14488 55.729 11.2614 52.8036C13.1569 51.0193 15.5987 49.3637 17.2212 48.351C17.5907 48.126 18.1369 47.8045 18.7955 47.4027C18.9079 47.3384 18.9722 47.3062 18.9722 47.3062C19.1007 47.2259 19.2292 47.1455 19.3577 47.0651C20.4983 51.2444 19.4059 54.9253 16.7393 57.8347ZM35.2132 45.2648C34.3296 47.4187 32.4822 52.9321 31.3577 52.6267C30.3939 52.3696 29.7995 48.1903 31.165 44.0593C31.8557 41.9857 33.3176 39.5103 34.169 38.5459C35.5505 37.0028 37.0766 36.4884 37.4461 37.1153C37.912 37.9351 35.7593 43.9146 35.2132 45.2648ZM50.4581 52.5624C50.0887 52.7553 49.7352 52.8839 49.5746 52.7875C49.4622 52.7232 49.7352 52.466 49.7352 52.466C49.7352 52.466 51.6469 50.4085 52.4019 49.4762C52.8357 48.9297 53.3497 48.2867 53.8959 47.5634C53.8959 47.6277 53.8959 47.7081 53.8959 47.7724C53.8959 50.2317 51.5184 51.8873 50.4581 52.5624ZM62.2172 49.8781C61.9441 49.6852 61.9923 49.0422 62.9079 47.033C63.2614 46.2453 64.0967 44.9273 65.5264 43.6574C65.6871 44.1718 65.7995 44.6701 65.7834 45.1362C65.7674 48.2385 63.5505 49.3959 62.2172 49.8781Z" fill="#CD6799"/>
</g>
<defs>
<clipPath id="clip0_414_227">
<rect width="88" height="66" fill="white"/>
</clipPath>
</defs>
</svg>
