<svg width="193" height="227" viewBox="0 0 193 227" fill="none" xmlns="http://www.w3.org/2000/svg">
<path d="M173.374 179.714L69.287 209.705C66.1027 210.62 63.054 207.943 63.7202 204.816L100.904 31.3079C101.604 28.0672 106.211 27.5478 107.656 30.5627L176.513 173.007C176.812 173.646 176.968 174.343 176.968 175.049C176.968 175.755 176.812 176.452 176.513 177.091C176.213 177.73 175.777 178.295 175.234 178.747C174.692 179.198 174.056 179.525 173.374 179.703V179.714ZM191.214 172.646L111.507 7.69707C110.492 5.64576 108.946 3.90392 107.029 2.65282C105.113 1.40172 102.896 0.687099 100.61 0.58332C98.3186 0.425912 96.0271 0.890524 93.9779 1.92805C91.9287 2.96557 90.1979 4.53746 88.9683 6.47757L2.49677 142.926C-0.190646 147.172 -0.13419 152.411 2.64356 156.623L44.9083 220.409C47.4263 224.215 51.7962 226.417 56.3241 226.417C57.6114 226.417 58.9099 226.236 60.1746 225.875L182.859 190.532C186.619 189.436 189.69 186.851 191.305 183.418C192.908 179.985 192.886 176.056 191.226 172.634L191.214 172.646Z" fill="#00BFA5"/>
</svg>
