<svg width="91" height="91" viewBox="0 0 91 91" fill="none" xmlns="http://www.w3.org/2000/svg">
<path d="M12.6191 81.7578L5.33203 0H85.4902L78.2031 81.7578L45.3223 91" fill="#E34F26"/>
<path d="M45.5 83.8906L71.9824 76.6035L78.2031 6.57617H45.5" fill="#EF652A"/>
<path d="M45.5 36.9688H32.1699L31.2812 26.6602H45.5V16.707H45.3223H20.2617L20.4395 19.373L22.9277 47.0996H45.5V36.9688ZM45.5 63.0957H45.3223L34.125 60.0742L33.4141 52.0762H28.082H23.4609L24.7051 67.8945L45.3223 73.582H45.5V63.0957Z" fill="#EBEBEB"/>
<path d="M45.3223 36.9688V47.0996H57.7637L56.5195 60.0742L45.3223 63.0957V73.582L65.9395 67.8945L66.1172 66.1172L68.4277 39.6348L68.7832 36.9688H65.9395H45.3223ZM45.3223 16.707V22.9277V26.6602H69.6719L69.8496 24.5273L70.3828 19.373L70.5605 16.707H45.3223Z" fill="white"/>
</svg>
