<svg width="82" height="82" viewBox="0 0 82 82" fill="none" xmlns="http://www.w3.org/2000/svg">
<g clip-path="url(#clip0_414_235)">
<path fill-rule="evenodd" clip-rule="evenodd" d="M50.307 0.186141L4.93394 3.53748C1.27346 3.854 0 6.24594 0 9.11266V58.8539C0 61.0867 0.79294 62.9973 2.706 65.5508L13.3717 79.4195C15.1241 81.6523 16.7173 82.1312 20.0629 81.9721L72.7537 78.7823C77.2087 78.465 78.4855 76.3904 78.4855 72.8841V16.9248C78.4855 15.1126 77.7696 14.5903 75.6622 13.0437L60.8169 2.57726C57.3131 0.0295214 55.8805 -0.292739 50.307 0.185321V0.186141ZM21.2544 16.0089C16.9519 16.2983 15.9761 16.3639 13.5325 14.3771L7.32014 9.43574C6.68874 8.79614 7.00608 7.99828 8.59688 7.8392L52.2151 4.65186C55.8781 4.33206 57.7854 5.6088 59.2179 6.724L66.6988 12.1442C67.0186 12.3057 67.814 13.2594 66.8571 13.2594L21.812 15.9711L21.2544 16.0089ZM16.2385 72.406V24.9009C16.2385 22.8263 16.8756 21.8694 18.7829 21.7087L70.52 18.6796C72.2748 18.5213 73.0677 19.6365 73.0677 21.7079V68.8964C73.0677 70.971 72.7479 72.7258 69.8837 72.8841L20.3745 75.7541C17.5103 75.9123 16.2393 74.9587 16.2393 72.406H16.2385ZM65.1105 27.4479C65.4278 28.8829 65.1105 30.3179 63.6755 30.4819L61.2893 30.955V66.0289C59.2171 67.1441 57.3098 67.7812 55.7157 67.7812C53.168 67.7812 52.5317 66.9833 50.6235 64.5939L35.0189 40.0431V63.796L39.9553 64.9137C39.9553 64.9137 39.9553 67.7837 35.9726 67.7837L24.9928 68.4208C24.673 67.7812 24.9928 66.1879 26.1055 65.8706L28.9731 65.0752V33.6692L24.9936 33.3469C24.6738 31.9119 25.4692 29.8398 27.6996 29.6791L39.4805 28.8861L55.7165 53.7543V31.7537L51.578 31.2781C51.2582 29.5208 52.5317 28.2441 54.1225 28.0883L65.1105 27.4479Z" fill="url(#paint0_linear_414_235)"/>
</g>
<defs>
<linearGradient id="paint0_linear_414_235" x1="0" y1="40.9995" x2="78.4855" y2="40.9995" gradientUnits="userSpaceOnUse">
<stop stop-color="#C04848"/>
<stop offset="1" stop-color="#480048"/>
</linearGradient>
<clipPath id="clip0_414_235">
<rect width="82" height="82" fill="white"/>
</clipPath>
</defs>
</svg>
